# xmcd
#
# Track frame offsets:
#	183
#	11515
#	21343
#	32985
#	46800
#	59713
#	72240
#	84495
#	96335
#	108813
#	120915
#	134288
#
# Disc length: 1917
#
# Revision: 1
# Processed by: cddbd v1.5.1PL0 Copyright (c) Steve Scherf et al.
# Submitted via: EasyCDDAExtractor 7.1.3.1
# Normalized: r0:DSETVAR1
#
DISCID=9b077b0c
DTITLE=Various Artist - Country Crossover
DYEAR=1990
DGENRE=Country
TTITLE0=Conway Twitty - It's Only Make Belive
TTITLE1=Faron Young - As Usual
TTITLE2=Marty Robbins - Pretend
TTITLE3=Margo Smith - Little Things Mean A Lot
TTITLE4=The Kendalls - Never Ending Song Of Love
TTITLE5=Merle Haggard - Love Me Tender
TTITLE6=Tanya Tucker - You Don't Have To Say You Love Me
TTITLE7=B.J. Thomas - Crying
TTITLE8=Loretta Lynn - Crazy
TTITLE9=George Hamilton IV - Everlasting Love
TTITLE10=Billy 'crash' Craddock - A Tear Fell
TTITLE11=Patsy Cline - True Love
EXTD=
EXTT0=
EXTT1=
EXTT2=
EXTT3=
EXTT4=
EXTT5=
EXTT6=
EXTT7=
EXTT8=
EXTT9=
EXTT10=
EXTT11=
PLAYORDER=
